<svg xmlns="http://www.w3.org/2000/svg" version="1.1" viewBox="0 0 128 128">
  <defs>
    <filter id="filter3895" colorInterpolationFilters="sRGB">
      <feGaussianBlur stdDeviation="1.1"></feGaussianBlur>
    </filter>
    <filter id="filter3973" colorInterpolationFilters="sRGB">
      <feGaussianBlur stdDeviation="0.449"></feGaussianBlur>
    </filter>
    <linearGradient
      id="linearGradient3982"
      x1="8"
      x2="86.244"
      y1="73.737"
      y2="2.464"
      gradientUnits="userSpaceOnUse"
    >
      <stop offset="0" stopColor="#0a0"></stop>
      <stop offset="0.295" stopColor="#0f0"></stop>
      <stop offset="1" stopColor="#d5ffd5"></stop>
    </linearGradient>
    <linearGradient
      id="linearGradient3984"
      x1="47.125"
      x2="47.125"
      y1="4.516"
      y2="79.832"
      gradientUnits="userSpaceOnUse"
    >
      <stop offset="0" stopColor="#fff"></stop>
      <stop offset="1" stopColor="#fff" stopOpacity="0"></stop>
    </linearGradient>
    <linearGradient
      id="linearGradient3986"
      x1="47.125"
      x2="60.753"
      y1="4.516"
      y2="59.766"
      gradientUnits="userSpaceOnUse"
    >
      <stop offset="0" stopColor="#fff"></stop>
      <stop offset="1" stopColor="#fff" stopOpacity="0"></stop>
    </linearGradient>
  </defs>
  <g transform="translate(0 -924.36)">
    <g transform="translate(-10.225 899.05) scale(1.8813)">
      <path
        fill="#000"
        d="M20 42.362l10 10 30-30 10 10-40 40-20-20z"
        filter="url(#filter3895)"
        opacity="0.652"
      ></path>
      <path
        fill="url(#linearGradient3982)"
        d="M20 42.362l10 10 30-30 10 10-40 40-20-20z"
      ></path>
      <path
        fill="url(#linearGradient3984)"
        stroke="url(#linearGradient3986)"
        strokeWidth="0.266"
        d="M60 23.5L32.656 50.844c.664-.13 1.331-.255 2-.375a251.684 251.684 0 0110.906-1.688c2.645-.344 5.103-.591 7.656-.75l15.657-15.656L60 23.498zm-40 20l-8.875 8.875 3.156 3.156c4.597-1.352 9.218-2.78 13.97-3.78L20 43.5z"
        filter="url(#filter3973)"
      ></path>
    </g>
  </g>
</svg>
